<svg width="120" height="21" viewBox="0 0 120 21" fill="none" xmlns="http://www.w3.org/2000/svg">
    <path d="M31.3114 16.6151C30.2517 16.6151 29.306 16.3691 28.4744 15.8771C27.6562 15.3714 27.0056 14.6882 26.5227 13.8272C26.0533 12.9663 25.8185 11.9961 25.8185 10.9165C25.8185 9.82325 26.0466 8.84616 26.5026 7.98523C26.9586 7.12429 27.5824 6.44785 28.3738 5.95589C29.1651 5.45026 30.0773 5.19745 31.1102 5.19745C31.9283 5.19745 32.6795 5.36145 33.3635 5.68942C34.0611 6.01739 34.6714 6.50935 35.1945 7.1653C35.342 7.32928 35.3957 7.50693 35.3554 7.69826C35.3152 7.87589 35.2012 8.03305 35.0135 8.16972C34.8658 8.27903 34.6982 8.32004 34.5105 8.2927C34.336 8.2517 34.1818 8.14922 34.0477 7.98523C33.2697 7.0833 32.2905 6.63234 31.1102 6.63234C30.359 6.63234 29.695 6.81683 29.1183 7.18579C28.5549 7.55476 28.1123 8.06039 27.7903 8.70266C27.4818 9.34495 27.3276 10.0829 27.3276 10.9165C27.3276 11.7364 27.4952 12.4675 27.8306 13.1098C28.166 13.7521 28.6354 14.2577 29.2389 14.6267C29.8426 14.9956 30.5334 15.1801 31.3114 15.1801C31.8345 15.1801 32.3107 15.1118 32.7399 14.9751C33.1825 14.8248 33.5716 14.5993 33.9068 14.2987C34.0679 14.162 34.2355 14.0869 34.4098 14.0732C34.5841 14.0596 34.7452 14.1142 34.8927 14.2372C35.0536 14.3875 35.1408 14.5584 35.1542 14.7497C35.1811 14.941 35.1207 15.105 34.9732 15.2416C33.994 16.1572 32.7734 16.6151 31.3114 16.6151Z" fill="url(#paint0_linear_43_103)"/>
    <path d="M39.1526 11.9414C38.9112 11.9414 38.7167 11.8662 38.5692 11.7159C38.435 11.5656 38.368 11.3743 38.368 11.142V1.30278C38.368 1.0568 38.435 0.865481 38.5692 0.728827C38.7167 0.578506 38.9112 0.503345 39.1526 0.503345C39.3806 0.503345 39.5618 0.578506 39.6959 0.728827C39.8435 0.865481 39.9172 1.0568 39.9172 1.30278V11.142C39.9172 11.3743 39.8435 11.5656 39.6959 11.7159C39.5618 11.8662 39.3806 11.9414 39.1526 11.9414ZM47.8043 16.5125C47.5762 16.5125 47.3885 16.4373 47.2409 16.287C47.0934 16.1367 47.0195 15.9522 47.0195 15.7336V10.404C47.0195 9.55676 46.8586 8.85982 46.5367 8.3132C46.2283 7.76658 45.7989 7.35661 45.2491 7.0833C44.7125 6.80999 44.1022 6.67333 43.4181 6.67333C42.7609 6.67333 42.1639 6.80315 41.6274 7.0628C41.1042 7.32245 40.6885 7.67775 40.3799 8.12871C40.0715 8.57967 39.9172 9.09214 39.9172 9.66609H38.8107C38.8375 8.80515 39.0655 8.03989 39.4947 7.37028C39.9239 6.687 40.494 6.15404 41.2049 5.7714C41.9158 5.3751 42.7072 5.17696 43.579 5.17696C44.5313 5.17696 45.3832 5.38194 46.1343 5.79191C46.8855 6.18821 47.4757 6.77582 47.9049 7.55476C48.3475 8.33369 48.5688 9.28345 48.5688 10.404V15.7336C48.5688 15.9522 48.495 16.1367 48.3475 16.287C48.2001 16.4373 48.0189 16.5125 47.8043 16.5125ZM39.1526 16.5125C38.9112 16.5125 38.7167 16.4441 38.5692 16.3076C38.435 16.1572 38.368 15.9659 38.368 15.7336V6.09938C38.368 5.8534 38.435 5.66209 38.5692 5.52542C38.7167 5.3751 38.9112 5.29994 39.1526 5.29994C39.3806 5.29994 39.5618 5.3751 39.6959 5.52542C39.8435 5.66209 39.9172 5.8534 39.9172 6.09938V15.7336C39.9172 15.9659 39.8435 16.1572 39.6959 16.3076C39.5618 16.4441 39.3806 16.5125 39.1526 16.5125Z" fill="url(#paint1_linear_43_103)"/>
    <path d="M56.8333 16.6151C55.8005 16.6151 54.875 16.3691 54.0567 15.8771C53.2386 15.3714 52.588 14.6882 52.1051 13.8272C51.6356 12.9663 51.4009 11.9961 51.4009 10.9165C51.4009 9.82325 51.6424 8.84616 52.1252 7.98523C52.6215 7.12429 53.2921 6.44785 54.1373 5.95589C54.9822 5.45026 55.9347 5.19745 56.9943 5.19745C58.054 5.19745 58.9996 5.45026 59.8313 5.95589C60.6762 6.44785 61.3403 7.12429 61.8232 7.98523C62.3195 8.84616 62.5743 9.82325 62.5878 10.9165L61.9639 11.4084C61.9639 12.3924 61.7359 13.2806 61.2799 14.0732C60.8373 14.8522 60.2269 15.4739 59.4489 15.9386C58.6843 16.3896 57.8125 16.6151 56.8333 16.6151ZM56.9943 15.1801C57.7723 15.1801 58.463 14.9956 59.0667 14.6267C59.6836 14.2577 60.1665 13.7521 60.5153 13.1098C60.8774 12.4539 61.0586 11.7228 61.0586 10.9165C61.0586 10.0966 60.8774 9.36545 60.5153 8.72317C60.1665 8.08088 59.6836 7.57525 59.0667 7.20629C58.463 6.82365 57.7723 6.63234 56.9943 6.63234C56.2297 6.63234 55.5389 6.82365 54.922 7.20629C54.3049 7.57525 53.8153 8.08088 53.4532 8.72317C53.091 9.36545 52.9099 10.0966 52.9099 10.9165C52.9099 11.7228 53.091 12.4539 53.4532 13.1098C53.8153 13.7521 54.3049 14.2577 54.922 14.6267C55.5389 14.9956 56.2297 15.1801 56.9943 15.1801ZM61.803 16.5125C61.575 16.5125 61.3871 16.4441 61.2396 16.3076C61.0921 16.1572 61.0183 15.9659 61.0183 15.7336V12.2284L61.4005 10.609L62.5878 10.9165V15.7336C62.5878 15.9659 62.5139 16.1572 62.3663 16.3076C62.2188 16.4441 62.0311 16.5125 61.803 16.5125Z" fill="url(#paint2_linear_43_103)"/>
    <path d="M67.975 16.5125C67.4384 16.5125 66.9555 16.3623 66.5263 16.0616C66.1106 15.7609 65.7819 15.3441 65.5405 14.8112C65.3124 14.2782 65.1983 13.6632 65.1983 12.9663V1.28228C65.1983 1.04997 65.2655 0.865481 65.3997 0.728827C65.5472 0.578506 65.7349 0.503345 65.9629 0.503345C66.1909 0.503345 66.3721 0.578506 66.5062 0.728827C66.6537 0.865481 66.7275 1.04997 66.7275 1.28228V12.9663C66.7275 13.5539 66.8416 14.0322 67.0696 14.4012C67.3111 14.7702 67.6129 14.9547 67.975 14.9547H68.478C68.6792 14.9547 68.8402 15.0298 68.9609 15.1801C69.0817 15.3168 69.1419 15.5013 69.1419 15.7336C69.1419 15.9659 69.0548 16.1572 68.8803 16.3076C68.7194 16.4441 68.5048 16.5125 68.2365 16.5125H67.975Z" fill="url(#paint3_linear_43_103)"/>
    <path d="M75.6599 16.6151C74.5734 16.6151 73.6076 16.3759 72.7627 15.8976C71.931 15.4056 71.2738 14.7292 70.7909 13.8682C70.3214 13.0073 70.0867 12.0234 70.0867 10.9165C70.0867 9.79591 70.308 8.81199 70.7506 7.96473C71.2067 7.10379 71.8305 6.42735 72.6217 5.9354C73.4132 5.44344 74.3252 5.19745 75.3581 5.19745C76.3775 5.19745 77.2627 5.43661 78.0139 5.9149C78.7785 6.37952 79.3687 7.02863 79.7845 7.86224C80.2003 8.69584 80.4083 9.64559 80.4083 10.7115C80.4083 10.9301 80.3412 11.1078 80.207 11.2445C80.0729 11.3674 79.8986 11.4289 79.684 11.4289H71.1328V10.1171H79.8449L78.9797 10.7525C78.9931 9.95989 78.8523 9.24929 78.5572 8.62068C78.2621 7.99206 77.8396 7.50009 77.2896 7.1448C76.753 6.78949 76.1092 6.61184 75.3581 6.61184C74.5935 6.61184 73.9229 6.79633 73.346 7.1653C72.7694 7.53426 72.3201 8.04673 71.9981 8.70266C71.6895 9.34495 71.5353 10.0829 71.5353 10.9165C71.5353 11.7501 71.7097 12.488 72.0585 13.1303C72.4206 13.7726 72.9101 14.2782 73.5272 14.6472C74.1442 15.0161 74.8551 15.2006 75.6599 15.2006C76.1428 15.2006 76.6257 15.1186 77.1086 14.9547C77.6049 14.777 78.0005 14.5584 78.2956 14.2987C78.4433 14.1757 78.6109 14.1142 78.7986 14.1142C78.9864 14.1006 79.1474 14.1484 79.2815 14.2577C79.456 14.4217 79.5431 14.5993 79.5431 14.7907C79.5565 14.982 79.4827 15.146 79.3218 15.2826C78.8792 15.6653 78.3157 15.9864 77.6317 16.246C76.9476 16.492 76.2903 16.6151 75.6599 16.6151Z" fill="url(#paint4_linear_43_103)"/>
    <path d="M92.4654 16.5125C92.2373 16.5125 92.0496 16.4373 91.902 16.287C91.7545 16.1367 91.6806 15.9522 91.6806 15.7336V10.404C91.6806 9.55676 91.5197 8.85982 91.1978 8.3132C90.8892 7.76658 90.46 7.35661 89.91 7.0833C89.3736 6.80999 88.7633 6.67333 88.0792 6.67333C87.422 6.67333 86.825 6.80315 86.2885 7.0628C85.7653 7.32246 85.3496 7.67775 85.041 8.12871C84.7326 8.57967 84.5783 9.09214 84.5783 9.66609H83.4717C83.4986 8.80515 83.7266 8.03989 84.1558 7.37028C84.585 6.687 85.1551 6.15404 85.866 5.7714C86.5769 5.3751 87.3683 5.17696 88.2401 5.17696C89.1924 5.17696 90.0443 5.38194 90.7954 5.79191C91.5466 6.18821 92.1367 6.77582 92.566 7.55476C93.0086 8.3337 93.2299 9.28345 93.2299 10.404V15.7336C93.2299 15.9522 93.1561 16.1367 93.0086 16.287C92.861 16.4373 92.68 16.5125 92.4654 16.5125ZM83.8137 16.5125C83.5723 16.5125 83.3778 16.4441 83.2303 16.3076C83.0961 16.1572 83.029 15.9659 83.029 15.7336V6.09938C83.029 5.8534 83.0961 5.66209 83.2303 5.52543C83.3778 5.3751 83.5723 5.29994 83.8137 5.29994C84.0417 5.29994 84.2229 5.3751 84.357 5.52543C84.5045 5.66209 84.5783 5.8534 84.5783 6.09938V15.7336C84.5783 15.9659 84.5045 16.1572 84.357 16.3076C84.2229 16.4441 84.0417 16.5125 83.8137 16.5125Z" fill="url(#paint5_linear_43_103)"/>
    <path d="M101.494 16.6151C100.435 16.6151 99.4958 16.3759 98.6776 15.8976C97.8594 15.4056 97.2155 14.7292 96.746 13.8682C96.29 13.0073 96.062 12.0234 96.062 10.9165C96.062 9.79591 96.3034 8.80515 96.7863 7.94423C97.2692 7.0833 97.9331 6.41369 98.7782 5.9354C99.6232 5.44344 100.582 5.19745 101.655 5.19745C102.742 5.19745 103.701 5.44344 104.532 5.9354C105.378 6.41369 106.035 7.0833 106.504 7.94423C106.987 8.80515 107.235 9.79591 107.249 10.9165L106.343 11.4084C106.343 12.4197 106.135 13.3216 105.72 14.1142C105.304 14.8932 104.727 15.5081 103.989 15.9591C103.265 16.3964 102.433 16.6151 101.494 16.6151ZM101.696 20.9401C100.636 20.9401 99.7037 20.7351 98.8989 20.3252C98.0942 19.9288 97.4301 19.3823 96.907 18.6853C96.7595 18.5213 96.6924 18.3437 96.7058 18.1525C96.7326 17.961 96.8333 17.8039 97.0076 17.6809C97.1819 17.558 97.3766 17.5169 97.5912 17.558C97.8058 17.599 97.9734 17.7014 98.0942 17.8655C98.4831 18.3574 98.9794 18.7537 99.5831 19.0543C100.2 19.355 100.911 19.5053 101.716 19.5053C102.467 19.5053 103.144 19.3208 103.748 18.9518C104.351 18.5829 104.828 18.0636 105.176 17.394C105.538 16.7243 105.72 15.9386 105.72 15.0366V11.9209L106.303 10.732L107.249 10.9165V15.0981C107.249 16.205 107.007 17.1957 106.524 18.0704C106.041 18.9586 105.384 19.6557 104.553 20.1613C103.721 20.6804 102.769 20.9401 101.696 20.9401ZM101.655 15.1801C102.447 15.1801 103.144 15.0025 103.748 14.6472C104.365 14.2782 104.848 13.7726 105.197 13.1303C105.545 12.488 105.72 11.7501 105.72 10.9165C105.72 10.0829 105.545 9.34495 105.197 8.70266C104.848 8.04673 104.365 7.5411 103.748 7.18579C103.144 6.81683 102.447 6.63234 101.655 6.63234C100.864 6.63234 100.16 6.81683 99.5428 7.18579C98.9257 7.5411 98.4428 8.04673 98.0942 8.70266C97.7454 9.34495 97.571 10.0829 97.571 10.9165C97.571 11.7501 97.7454 12.488 98.0942 13.1303C98.4428 13.7726 98.9257 14.2782 99.5428 14.6472C100.16 15.0025 100.864 15.1801 101.655 15.1801Z" fill="url(#paint6_linear_43_103)"/>
    <path d="M115.252 16.6151C114.165 16.6151 113.199 16.3759 112.354 15.8976C111.523 15.4056 110.865 14.7292 110.383 13.8682C109.913 13.0073 109.678 12.0234 109.678 10.9165C109.678 9.79591 109.9 8.81199 110.342 7.96473C110.798 7.10379 111.422 6.42735 112.214 5.9354C113.005 5.44344 113.917 5.19745 114.95 5.19745C115.969 5.19745 116.855 5.43661 117.606 5.9149C118.37 6.37952 118.96 7.02863 119.376 7.86224C119.792 8.69584 120 9.64559 120 10.7115C120 10.9301 119.933 11.1078 119.799 11.2445C119.665 11.3674 119.49 11.4289 119.276 11.4289H110.725V10.1171H119.437L118.572 10.7525C118.585 9.95989 118.444 9.24929 118.149 8.62068C117.854 7.99206 117.431 7.50009 116.881 7.1448C116.345 6.78949 115.701 6.61184 114.95 6.61184C114.185 6.61184 113.515 6.79633 112.938 7.1653C112.361 7.53426 111.912 8.04673 111.59 8.70266C111.281 9.34495 111.127 10.0829 111.127 10.9165C111.127 11.7501 111.301 12.488 111.65 13.1303C112.012 13.7726 112.502 14.2782 113.119 14.6472C113.736 15.0161 114.447 15.2006 115.252 15.2006C115.734 15.2006 116.217 15.1186 116.7 14.9547C117.197 14.777 117.592 14.5584 117.887 14.2987C118.035 14.1757 118.203 14.1142 118.39 14.1142C118.578 14.1006 118.739 14.1484 118.873 14.2577C119.048 14.4217 119.135 14.5993 119.135 14.7907C119.148 14.982 119.075 15.146 118.913 15.2826C118.471 15.6653 117.908 15.9864 117.223 16.246C116.539 16.492 115.882 16.6151 115.252 16.6151Z" fill="url(#paint7_linear_43_103)"/>
    <path d="M5.3722 3.12986C5.80947 2.83223 6.2734 2.57742 6.75777 2.36883C7.92743 1.86517 8.51183 1.61292 9.25881 2.11743C10.0041 2.62109 10.0041 3.44582 10.0041 5.0961V6.7948C10.0041 8.39668 10.0041 9.19676 10.4927 9.6945C10.9812 10.1922 11.7665 10.1922 13.3388 10.1922H15.0062C16.6252 10.1922 17.4355 10.1922 17.9299 10.9524C18.4242 11.7125 18.1775 12.3079 17.6831 13.5004C16.936 15.3005 15.6024 16.7831 13.9072 17.698C12.2121 18.6128 10.2591 18.9041 8.37761 18.5227C6.76033 18.195 5.27473 17.386 4.1087 16.1983C2.94267 15.0104 2.14859 13.4969 1.82689 11.8493C1.50518 10.2016 1.6703 8.49375 2.30136 6.94169C2.93244 5.38964 4.0011 4.06311 5.3722 3.12986Z" fill="#4D84E4"/>
    <path opacity="0.5" fill-rule="evenodd" clip-rule="evenodd" d="M11.4831 1.80742C11.5035 1.72638 11.5394 1.65024 11.5887 1.58333C11.638 1.51642 11.6997 1.46006 11.7704 1.41747C11.8411 1.37488 11.9193 1.34689 12.0006 1.33511C12.0819 1.32332 12.1647 1.32796 12.2442 1.34877C13.7945 1.75791 15.2091 2.58204 16.3416 3.73571C17.4738 4.88937 18.2828 6.33061 18.6844 7.91C18.7048 7.99104 18.7095 8.07538 18.6979 8.15822C18.6864 8.24108 18.659 8.3208 18.6173 8.39285C18.5756 8.46489 18.5203 8.52786 18.4546 8.57814C18.3889 8.62841 18.3141 8.66502 18.2346 8.68589C18.1552 8.70675 18.0724 8.71144 17.9911 8.6997C17.9097 8.68796 17.8314 8.66001 17.7606 8.61747C17.69 8.57492 17.6282 8.51859 17.5788 8.4517C17.5294 8.38483 17.4935 8.30869 17.473 8.22767C17.1272 6.86904 16.4312 5.6293 15.457 4.63683C14.4829 3.64436 13.266 2.93523 11.9324 2.58287C11.8529 2.56208 11.7782 2.52552 11.7125 2.4753C11.6468 2.42508 11.5915 2.36216 11.5497 2.29014C11.5079 2.21814 11.4804 2.13844 11.4689 2.05562C11.4573 1.9728 11.4618 1.88845 11.4823 1.80742" fill="#4D84E4"/>
    <defs>
        <linearGradient id="paint0_linear_43_103" x1="24.5912" y1="9.85058" x2="120.832" y2="9.85058" gradientUnits="userSpaceOnUse">
            <stop stop-color="#3868D8"/>
            <stop offset="1" stop-color="#6FA6EB"/>
        </linearGradient>
        <linearGradient id="paint1_linear_43_103" x1="24.5912" y1="9.85058" x2="120.832" y2="9.85058" gradientUnits="userSpaceOnUse">
            <stop stop-color="#3868D8"/>
            <stop offset="1" stop-color="#6FA6EB"/>
        </linearGradient>
        <linearGradient id="paint2_linear_43_103" x1="24.5912" y1="9.85058" x2="120.832" y2="9.85058" gradientUnits="userSpaceOnUse">
            <stop stop-color="#3868D8"/>
            <stop offset="1" stop-color="#6FA6EB"/>
        </linearGradient>
        <linearGradient id="paint3_linear_43_103" x1="24.5912" y1="9.85058" x2="120.832" y2="9.85058" gradientUnits="userSpaceOnUse">
            <stop stop-color="#3868D8"/>
            <stop offset="1" stop-color="#6FA6EB"/>
        </linearGradient>
        <linearGradient id="paint4_linear_43_103" x1="24.5912" y1="9.85058" x2="120.832" y2="9.85058" gradientUnits="userSpaceOnUse">
            <stop stop-color="#3868D8"/>
            <stop offset="1" stop-color="#6FA6EB"/>
        </linearGradient>
        <linearGradient id="paint5_linear_43_103" x1="24.5912" y1="9.85058" x2="120.832" y2="9.85058" gradientUnits="userSpaceOnUse">
            <stop stop-color="#3868D8"/>
            <stop offset="1" stop-color="#6FA6EB"/>
        </linearGradient>
        <linearGradient id="paint6_linear_43_103" x1="24.5912" y1="9.85058" x2="120.832" y2="9.85058" gradientUnits="userSpaceOnUse">
            <stop stop-color="#3868D8"/>
            <stop offset="1" stop-color="#6FA6EB"/>
        </linearGradient>
        <linearGradient id="paint7_linear_43_103" x1="24.5912" y1="9.85058" x2="120.832" y2="9.85058" gradientUnits="userSpaceOnUse">
            <stop stop-color="#3868D8"/>
            <stop offset="1" stop-color="#6FA6EB"/>
        </linearGradient>
    </defs>
</svg>
