<svg width="30" height="30" viewBox="0 0 30 30" fill="none" xmlns="http://www.w3.org/2000/svg">
    <path d="M8.05499 4.60625C8.71062 4.16823 9.40622 3.79322 10.1325 3.48625C11.8862 2.745 12.7625 2.37375 13.8825 3.11625C15 3.8575 15 5.07125 15 7.5V10C15 12.3575 15 13.535 15.7325 14.2675C16.465 15 17.6425 15 20 15H22.5C24.9275 15 26.1425 15 26.8837 16.1188C27.625 17.2375 27.255 18.1138 26.5137 19.8687C25.3935 22.5179 23.3939 24.6997 20.8522 26.0462C18.3105 27.3926 15.3822 27.8213 12.5612 27.26C10.1363 26.7778 7.90884 25.5874 6.16052 23.8392C4.41221 22.091 3.22158 19.8636 2.73923 17.4387C2.25687 15.0138 2.50445 12.5004 3.45066 10.2162C4.39686 7.932 5.99919 5.97972 8.05499 4.60625Z" fill="#4D84E4"/>
    <path opacity="0.5" fill-rule="evenodd" clip-rule="evenodd" d="M17.2175 2.66C17.2481 2.54074 17.3019 2.42867 17.3758 2.33021C17.4497 2.23174 17.5423 2.1488 17.6483 2.08611C17.7543 2.02343 17.8716 1.98224 17.9935 1.96489C18.1154 1.94754 18.2395 1.95438 18.3587 1.985C20.6832 2.58715 22.8042 3.80002 24.5021 5.49789C26.2 7.19575 27.4128 9.31683 28.015 11.6412C28.0457 11.7605 28.0526 11.8846 28.0353 12.0066C28.018 12.1285 27.9769 12.2458 27.9143 12.3519C27.8517 12.4579 27.7688 12.5505 27.6703 12.6245C27.5719 12.6985 27.4599 12.7524 27.3406 12.7831C27.2213 12.8138 27.0972 12.8207 26.9753 12.8035C26.8534 12.7862 26.736 12.745 26.63 12.6824C26.524 12.6198 26.4313 12.5369 26.3573 12.4385C26.2833 12.34 26.2294 12.228 26.1987 12.1088C25.6802 10.1093 24.6365 8.28472 23.1759 6.82408C21.7153 5.36344 19.8907 4.31981 17.8912 3.80125C17.772 3.77064 17.6599 3.71685 17.5614 3.64293C17.463 3.56901 17.38 3.47641 17.3173 3.37044C17.2547 3.26446 17.2135 3.14717 17.1961 3.02528C17.1788 2.90338 17.1856 2.77926 17.2162 2.66" fill="#4D84E4"/>
</svg>
