<svg width="21" height="20" viewBox="0 0 21 20" fill="none" xmlns="http://www.w3.org/2000/svg">
    <path d="M18.6712 8.36794H18V8.33335H10.5V11.6667H15.2096C14.5225 13.6071 12.6762 15 10.5 15C7.73874 15 5.49999 12.7613 5.49999 10C5.49999 7.23877 7.73874 5.00002 10.5 5.00002C11.7746 5.00002 12.9342 5.48085 13.8171 6.26627L16.1742 3.90919C14.6858 2.5221 12.695 1.66669 10.5 1.66669C5.89791 1.66669 2.16666 5.39794 2.16666 10C2.16666 14.6021 5.89791 18.3334 10.5 18.3334C15.1021 18.3334 18.8333 14.6021 18.8333 10C18.8333 9.44127 18.7758 8.89585 18.6712 8.36794Z" fill="#FFC107"/>
    <path d="M3.1275 6.12127L5.86542 8.12919C6.60625 6.29502 8.40042 5.00002 10.5 5.00002C11.7746 5.00002 12.9342 5.48085 13.8171 6.26627L16.1742 3.90919C14.6858 2.5221 12.695 1.66669 10.5 1.66669C7.29917 1.66669 4.52334 3.47377 3.1275 6.12127Z" fill="#FF3D00"/>
    <path d="M10.5 18.3333C12.6525 18.3333 14.6083 17.5096 16.0871 16.17L13.5079 13.9875C12.6433 14.6454 11.5865 15.0012 10.5 15C8.33249 15 6.49207 13.6179 5.79874 11.6891L3.08124 13.7829C4.4604 16.4816 7.26124 18.3333 10.5 18.3333Z" fill="#4CAF50"/>
    <path d="M18.6713 8.3679H18V8.33331H10.5V11.6666H15.2096C14.8809 12.5902 14.2889 13.3971 13.5067 13.9879L13.5079 13.9871L16.0871 16.1696C15.9046 16.3354 18.8333 14.1666 18.8333 9.99998C18.8333 9.44123 18.7758 8.89581 18.6713 8.3679Z" fill="#1976D2"/>
</svg>
